<?xml version="1.0" encoding="UTF-8"?>
<svg id="Layer_1" data-name="Layer 1" xmlns="http://www.w3.org/2000/svg" viewBox="0 0 296.91 376.9">
  <defs>
    <style>
      .cls-1, .cls-2 {
        fill: #010101;
        stroke-width: 0px;
      }

      .cls-2 {
        fill-rule: evenodd;
      }
    </style>
  </defs>
  <g id="Logo_Black" data-name="Logo Black">
    <path id="Mark" class="cls-2" d="m148.58,0C66.42,0,0,66.91,0,149.68c0,66.17,42.56,122.17,101.59,142,7.38,1.49,10.08-3.22,10.08-7.18,0-3.47-.24-15.36-.24-27.76-41.33,8.92-49.94-17.84-49.94-17.84-6.64-17.35-16.48-21.81-16.48-21.81-13.53-9.17.99-9.17.99-9.17,15.01.99,22.88,15.36,22.88,15.36,13.28,22.8,34.68,16.36,43.29,12.39,1.23-9.67,5.17-16.36,9.35-20.07-32.96-3.47-67.65-16.36-67.65-73.85,0-16.36,5.9-29.74,15.25-40.14-1.48-3.72-6.64-19.08,1.48-39.65,0,0,12.55-3.97,40.83,15.36,12.11-3.28,24.6-4.94,37.15-4.96,12.55,0,25.33,1.74,37.14,4.96,28.29-19.33,40.84-15.36,40.84-15.36,8.12,20.57,2.95,35.94,1.48,39.65,9.6,10.41,15.25,23.79,15.25,40.14,0,57.5-34.68,70.13-67.89,73.85,5.41,4.71,10.08,13.63,10.08,27.75,0,20.07-.24,36.18-.24,41.14,0,3.97,2.71,8.68,10.08,7.19,59.04-19.83,101.59-75.83,101.59-142C297.15,66.91,230.49,0,148.58,0Z"/>
    <g id="Type">
      <g>
        <path class="cls-1" d="m87.15,346.05h-16.76c-.43,0-.78.35-.78.78v8.19c0,.43.35.78.78.78h6.54v10.18s-1.47.5-5.53.5c-4.79,0-11.48-1.75-11.48-16.46s6.97-16.65,13.5-16.65c5.66,0,8.1,1,9.65,1.48.49.15.94-.34.94-.77l1.87-7.92c0-.2-.07-.45-.3-.61-.63-.45-4.47-2.6-14.19-2.6-11.19,0-22.67,4.76-22.67,27.64s13.14,26.29,24.21,26.29c9.17,0,14.73-3.92,14.73-3.92.23-.13.25-.45.25-.59v-25.56c0-.43-.35-.78-.78-.78Z"/>
        <path class="cls-1" d="m173.52,325.7c0-.44-.35-.79-.78-.79h-9.44c-.43,0-.78.35-.78.79,0,0,0,18.24,0,18.24h-14.71v-18.24c0-.44-.35-.79-.78-.79h-9.44c-.43,0-.78.35-.78.79v49.38c0,.44.35.79.78.79h9.44c.43,0,.78-.35.78-.79v-21.12h14.71s-.03,21.12-.03,21.12c0,.44.35.79.78.79h9.46c.43,0,.78-.35.78-.79v-49.38Z"/>
        <g>
          <path class="cls-1" d="m104.95,332.18c0-3.4-2.72-6.14-6.09-6.14s-6.08,2.75-6.08,6.14,2.73,6.15,6.08,6.15,6.09-2.75,6.09-6.15Z"/>
          <path class="cls-1" d="m104.28,364.67v-22.79c0-.43-.35-.79-.78-.79h-9.41c-.43,0-.82.45-.82.88v32.66c0,.96.6,1.25,1.37,1.25h8.48c.93,0,1.16-.46,1.16-1.26v-9.94Z"/>
        </g>
        <path class="cls-1" d="m209.39,341.16h-9.36c-.43,0-.78.35-.78.79v24.21s-2.38,1.74-5.76,1.74-4.27-1.53-4.27-4.84v-21.12c0-.44-.35-.79-.78-.79h-9.5c-.43,0-.78.35-.78.79v22.71c0,9.82,5.47,12.22,13,12.22,6.18,0,11.16-3.41,11.16-3.41,0,0,.24,1.8.34,2.01.11.21.39.43.69.43l6.05-.03c.43,0,.78-.35.78-.79v-33.15c0-.44-.35-.79-.78-.79Z"/>
        <path class="cls-1" d="m234.98,340.05c-5.32,0-8.94,2.37-8.94,2.37v-16.72c0-.44-.35-.79-.78-.79h-9.46c-.43,0-.78.35-.78.79v49.38c0,.44.35.79.78.79h6.57c.3,0,.52-.15.68-.42.16-.27.4-2.28.4-2.28,0,0,3.87,3.67,11.2,3.67,8.6,0,13.53-4.36,13.53-19.58s-7.88-17.21-13.2-17.21Zm-3.69,27.82c-3.25-.1-5.45-1.57-5.45-1.57v-15.64s2.17-1.33,4.84-1.57c3.37-.3,6.62.72,6.62,8.76,0,8.48-1.47,10.16-6.01,10.02Z"/>
        <path class="cls-1" d="m131.4,341.08h-7.08s-.01-9.35-.01-9.35c0-.35-.18-.53-.59-.53h-9.65c-.38,0-.58.17-.58.53v9.66s-4.83,1.17-5.16,1.26c-.33.09-.56.39-.56.75v6.07c0,.44.35.79.78.79h4.95v14.61c0,10.85,7.61,11.92,12.75,11.92,2.35,0,5.15-.75,5.62-.92.28-.1.44-.39.44-.71v-6.68c0-.44-.36-.79-.77-.79s-1.47.17-2.55.17c-3.48,0-4.66-1.62-4.66-3.71s0-13.88,0-13.88h7.08c.43,0,.78-.35.78-.79v-7.61c0-.44-.35-.79-.78-.79Z"/>
      </g>
    </g>
  </g>
</svg>
