<?xml version="1.0" encoding="UTF-8"?>
<svg id="Layer_1" data-name="Layer 1" xmlns="http://www.w3.org/2000/svg" viewBox="0 0 340.22 394.31">
  <defs>
    <style>
      .cls-1 {
        fill: #010101;
      }

      .cls-1, .cls-2, .cls-3 {
        stroke-width: 0px;
      }

      .cls-2 {
        fill: #fff;
      }

      .cls-3 {
        fill: #ed2224;
      }
    </style>
  </defs>
  <g>
    <path class="cls-1" d="m35.63,393.26h-15.06v-40.25L1.94,293.82h15.51l10.66,39.06,10.36-39.06h15.06l-17.89,59.19v40.25Z"/>
    <path class="cls-1" d="m93.48,369.11c0,4.37-.32,7.88-.97,10.51-.65,2.63-1.71,4.99-3.21,7.08-1.69,2.29-3.93,4.13-6.71,5.52-2.78,1.39-5.77,2.09-8.95,2.09s-6.16-.7-8.95-2.09c-2.78-1.39-5.02-3.23-6.71-5.52-1.49-2.09-2.56-4.45-3.21-7.08-.65-2.63-.97-6.14-.97-10.51v-25.79c0-4.37.32-7.88.97-10.51.65-2.63,1.71-4.99,3.21-7.08,1.69-2.29,3.93-4.12,6.71-5.52,2.78-1.39,5.76-2.09,8.95-2.09s6.16.7,8.95,2.09c2.78,1.39,5.02,3.23,6.71,5.52,1.49,2.09,2.56,4.45,3.21,7.08.65,2.63.97,6.14.97,10.51v25.79Zm-26.09,2.59c0,3.56.48,6.15,1.46,7.78.97,1.63,2.57,2.45,4.81,2.45s3.83-.82,4.81-2.45c.97-1.63,1.46-4.22,1.46-7.78v-30.98c0-3.56-.49-6.15-1.46-7.78-.97-1.63-2.57-2.45-4.81-2.45s-3.84.82-4.81,2.45c-.97,1.63-1.46,4.23-1.46,7.78v30.98Z"/>
    <path class="cls-1" d="m146.11,393.26h-13.57v-8.05c-1.58,1.69-3.01,3.13-4.3,4.32-1.29,1.19-2.52,2.14-3.71,2.83-1.19.7-2.37,1.19-3.56,1.49-1.19.3-2.42.45-3.7.45-3.26,0-5.73-1.14-7.41-3.43-.99-1.39-1.63-2.98-1.93-4.77-.3-1.79-.44-4.87-.44-9.24v-57.7h13.57v54.57c0,2.19.02,3.63.07,4.32.05.7.17,1.29.37,1.79.29,1.49,1.21,2.24,2.76,2.24,2.61,0,5.37-2.09,8.27-6.26v-56.65h13.57v74.1Z"/>
    <path class="cls-1" d="m177.86,393.26h-15.06v-85.43h-15.8v-14.01h46.96v14.01h-16.1v85.43Z"/>
    <path class="cls-1" d="m230.34,393.26h-13.57v-8.05c-1.58,1.69-3.01,3.13-4.3,4.32-1.29,1.19-2.52,2.14-3.71,2.83-1.19.7-2.37,1.19-3.56,1.49-1.19.3-2.42.45-3.7.45-3.26,0-5.73-1.14-7.41-3.43-.99-1.39-1.63-2.98-1.93-4.77-.3-1.79-.44-4.87-.44-9.24v-57.7h13.57v54.57c0,2.19.02,3.63.07,4.32.05.7.17,1.29.37,1.79.29,1.49,1.21,2.24,2.76,2.24,2.61,0,5.37-2.09,8.27-6.26v-56.65h13.57v74.1Z"/>
    <path class="cls-1" d="m258.52,326.32c2.47-2.98,4.74-5.09,6.82-6.34,2.07-1.24,4.4-1.86,6.97-1.86,4.44,0,7.66,1.99,9.63,5.96.49,1,.89,1.99,1.19,2.98.3.99.54,2.14.74,3.43.2,1.29.32,2.81.37,4.55.05,1.74.07,3.85.07,6.34v29.67c0,2.49-.03,4.6-.07,6.34-.05,1.74-.17,3.26-.37,4.55-.2,1.29-.44,2.44-.74,3.43-.3.99-.69,1.99-1.19,2.98-1.98,3.98-5.19,5.96-9.63,5.96-2.57,0-4.89-.62-6.97-1.86-2.08-1.24-4.35-3.35-6.82-6.34v7.16h-13.57v-99.44h13.57v32.5Zm0,52.48c2.23,2.19,4.41,3.28,6.53,3.28,2.32,0,3.87-.89,4.65-2.68.5-.89.79-1.84.89-2.83.1-.99.15-2.78.15-5.37v-29.97c0-2.58-.05-4.4-.15-5.44-.1-1.04-.4-1.96-.89-2.76-.78-1.79-2.33-2.68-4.65-2.68-2.13,0-4.31,1.1-6.53,3.28v45.17Z"/>
    <path class="cls-1" d="m311.29,358.68v13.04c0,6.82,2.14,10.22,6.41,10.22s6.17-2.78,6.26-8.35v-3.73l.15-2.39h13.72v3.43c0,4.08-.25,7.16-.75,9.25-.5,2.09-1.39,4.1-2.68,6.01-1.79,2.62-4.13,4.63-7.01,6.04-2.88,1.41-5.96,2.11-9.24,2.11s-6.24-.7-9.17-2.09c-2.93-1.39-5.24-3.23-6.93-5.52-1.59-2.09-2.71-4.47-3.35-7.16-.65-2.68-.97-6.16-.97-10.44v-25.79c0-4.37.32-7.88.97-10.51.65-2.63,1.71-4.99,3.21-7.08,1.69-2.29,3.97-4.12,6.86-5.52,2.88-1.39,5.91-2.09,9.09-2.09s6.16.67,8.95,2.01c2.78,1.34,5.07,3.21,6.86,5.59,1.49,2.09,2.56,4.45,3.21,7.08.65,2.63.97,6.14.97,10.51v15.36h-26.54Zm12.97-17.98c0-3.55-.51-6.13-1.53-7.76-1.02-1.63-2.65-2.44-4.88-2.44-4.37,0-6.56,3.4-6.56,10.2v6.8h12.97v-6.8Z"/>
  </g>
  <g id="Red">
    <path id="YouTube_Icon" data-name="YouTube Icon" class="cls-3" d="m170.11,0C10.04,2.86,0-6.45,0,119.28s9.6,115.91,170.11,119.27c162.72-4.69,170.11,5.95,170.11-119.27S324.84,1.98,170.11,0Zm-33.7,170.61v-102.86l87.49,51.49-87.49,51.37Z"/>
    <polygon class="cls-2" points="223.9 119.24 136.41 170.61 136.41 67.74 223.9 119.24"/>
  </g>
</svg>
